<svg width="12" height="12" viewBox="0 0 12 12" fill="none" xmlns="http://www.w3.org/2000/svg">
<path fill-rule="evenodd" clip-rule="evenodd" d="M3.5 3.25C3.5 2.00736 4.50736 1 5.75 1C6.99264 1 8 2.00736 8 3.25C8 4.49264 6.99264 5.5 5.75 5.5C4.50736 5.5 3.5 4.49264 3.5 3.25ZM5.75 2C5.05964 2 4.5 2.55964 4.5 3.25C4.5 3.94036 5.05964 4.5 5.75 4.5C6.44036 4.5 7 3.94036 7 3.25C7 2.55964 6.44036 2 5.75 2Z" fill="#B8B8D2"/>
<path fill-rule="evenodd" clip-rule="evenodd" d="M5.1786 6.5H6.3214C6.86328 6.5 7.30037 6.49999 7.6543 6.52891C8.01873 6.55868 8.33882 6.62158 8.63496 6.77247C9.10536 7.01215 9.48784 7.39462 9.72753 7.86503C9.87841 8.16117 9.94132 8.48127 9.97109 8.8457C10 9.19961 10 9.63664 10 10.1785V10.5C10 10.7761 9.77614 11 9.5 11H2C1.72386 11 1.5 10.7761 1.5 10.5V10.1786C1.5 9.63671 1.49999 9.19963 1.52891 8.84569C1.55868 8.48127 1.62159 8.16118 1.77248 7.86503C2.01216 7.39463 2.39461 7.01216 2.86502 6.77247C3.16117 6.62159 3.48127 6.55868 3.8457 6.52891C4.19963 6.49999 4.63672 6.5 5.1786 6.5ZM2.66349 8.31902C2.8073 8.03678 3.03677 7.8073 3.319 7.66349C3.45069 7.5964 3.62455 7.55031 3.92712 7.52559C4.23554 7.50039 4.6317 7.5 5.2 7.5H6.3C6.8683 7.5 7.26446 7.50039 7.57288 7.52559C7.87545 7.55031 8.0493 7.59639 8.18098 7.66348C8.46321 7.80729 8.69271 8.03679 8.83652 8.31902C8.90361 8.4507 8.94969 8.62455 8.97441 8.92712C8.99655 9.19801 8.99954 9.53657 8.99994 10H2.50006C2.50046 9.53657 2.50346 9.19801 2.52559 8.92713C2.55031 8.62454 2.5964 8.4507 2.66349 8.31902Z" fill="#B8B8D2"/>
<path d="M4.5 3.25C4.5 2.55964 5.05964 2 5.75 2C6.44036 2 7 2.55964 7 3.25C7 3.94036 6.44036 4.5 5.75 4.5C5.05964 4.5 4.5 3.94036 4.5 3.25Z" fill="#B8B8D2"/>
<path d="M3.319 7.66349C3.03677 7.8073 2.8073 8.03678 2.66349 8.31902C2.5964 8.4507 2.55031 8.62454 2.52559 8.92713C2.50346 9.19801 2.50046 9.53657 2.50006 10H8.99994C8.99954 9.53657 8.99655 9.19801 8.97441 8.92712C8.94969 8.62455 8.90361 8.4507 8.83652 8.31902C8.69271 8.03679 8.46321 7.80729 8.18098 7.66348C8.0493 7.59639 7.87545 7.55031 7.57288 7.52559C7.26446 7.50039 6.8683 7.5 6.3 7.5H5.2C4.6317 7.5 4.23554 7.50039 3.92712 7.52559C3.62455 7.55031 3.45069 7.5964 3.319 7.66349Z" fill="#B8B8D2"/>
</svg>
